<?xml version="1.0" encoding="UTF-8" standalone="no"?>
<!-- Created with Inkscape (http://www.inkscape.org/) -->

<svg
   xmlns:dc="http://purl.org/dc/elements/1.1/"
   xmlns:cc="http://creativecommons.org/ns#"
   xmlns:rdf="http://www.w3.org/1999/02/22-rdf-syntax-ns#"
   xmlns:svg="http://www.w3.org/2000/svg"
   xmlns="http://www.w3.org/2000/svg"
   xmlns:xlink="http://www.w3.org/1999/xlink"
   xmlns:sodipodi="http://sodipodi.sourceforge.net/DTD/sodipodi-0.dtd"
   xmlns:inkscape="http://www.inkscape.org/namespaces/inkscape"
   width="549.17999"
   height="748.06"
   id="svg2"
   version="1.1"
   inkscape:version="0.47 r22583"
   sodipodi:docname="Novo documento 1">
  <defs
     id="defs4">
    <linearGradient
       inkscape:collect="always"
       id="linearGradient3796">
      <stop
         style="stop-color:#4494a7;stop-opacity:1;"
         offset="0"
         id="stop3798" />
      <stop
         style="stop-color:#4494a7;stop-opacity:0;"
         offset="1"
         id="stop3800" />
    </linearGradient>
    <linearGradient
       inkscape:collect="always"
       id="linearGradient3788">
      <stop
         style="stop-color:#4494a7;stop-opacity:1;"
         offset="0"
         id="stop3790" />
      <stop
         style="stop-color:#4494a7;stop-opacity:0;"
         offset="1"
         id="stop3792" />
    </linearGradient>
    <linearGradient
       inkscape:collect="always"
       id="linearGradient3758">
      <stop
         style="stop-color:#4494a7;stop-opacity:1;"
         offset="0"
         id="stop3760" />
      <stop
         style="stop-color:#4494a7;stop-opacity:0;"
         offset="1"
         id="stop3762" />
    </linearGradient>
    <linearGradient
       inkscape:collect="always"
       id="linearGradient3750">
      <stop
         style="stop-color:#4494a7;stop-opacity:1;"
         offset="0"
         id="stop3752" />
      <stop
         style="stop-color:#4494a7;stop-opacity:0;"
         offset="1"
         id="stop3754" />
    </linearGradient>
    <inkscape:perspective
       sodipodi:type="inkscape:persp3d"
       inkscape:vp_x="0 : 526.18109 : 1"
       inkscape:vp_y="0 : 1000 : 0"
       inkscape:vp_z="744.09448 : 526.18109 : 1"
       inkscape:persp3d-origin="372.04724 : 350.78739 : 1"
       id="perspective10" />
    <inkscape:perspective
       id="perspective3598"
       inkscape:persp3d-origin="0.5 : 0.33333333 : 1"
       inkscape:vp_z="1 : 0.5 : 1"
       inkscape:vp_y="0 : 1000 : 0"
       inkscape:vp_x="0 : 0.5 : 1"
       sodipodi:type="inkscape:persp3d" />
    <inkscape:perspective
       id="perspective3632"
       inkscape:persp3d-origin="0.5 : 0.33333333 : 1"
       inkscape:vp_z="1 : 0.5 : 1"
       inkscape:vp_y="0 : 1000 : 0"
       inkscape:vp_x="0 : 0.5 : 1"
       sodipodi:type="inkscape:persp3d" />
    <inkscape:perspective
       id="perspective3632-4"
       inkscape:persp3d-origin="0.5 : 0.33333333 : 1"
       inkscape:vp_z="1 : 0.5 : 1"
       inkscape:vp_y="0 : 1000 : 0"
       inkscape:vp_x="0 : 0.5 : 1"
       sodipodi:type="inkscape:persp3d" />
    <inkscape:perspective
       id="perspective3632-9"
       inkscape:persp3d-origin="0.5 : 0.33333333 : 1"
       inkscape:vp_z="1 : 0.5 : 1"
       inkscape:vp_y="0 : 1000 : 0"
       inkscape:vp_x="0 : 0.5 : 1"
       sodipodi:type="inkscape:persp3d" />
    <inkscape:perspective
       id="perspective3706"
       inkscape:persp3d-origin="0.5 : 0.33333333 : 1"
       inkscape:vp_z="1 : 0.5 : 1"
       inkscape:vp_y="0 : 1000 : 0"
       inkscape:vp_x="0 : 0.5 : 1"
       sodipodi:type="inkscape:persp3d" />
    <inkscape:perspective
       id="perspective3728"
       inkscape:persp3d-origin="0.5 : 0.33333333 : 1"
       inkscape:vp_z="1 : 0.5 : 1"
       inkscape:vp_y="0 : 1000 : 0"
       inkscape:vp_x="0 : 0.5 : 1"
       sodipodi:type="inkscape:persp3d" />
    <linearGradient
       inkscape:collect="always"
       xlink:href="#linearGradient3750"
       id="linearGradient3756"
       x1="161.7269"
       y1="166.6479"
       x2="609.70166"
       y2="166.6479"
       gradientUnits="userSpaceOnUse"
       gradientTransform="matrix(-1,0,0,1,738.25177,-5.2458)" />
    <linearGradient
       inkscape:collect="always"
       xlink:href="#linearGradient3758"
       id="linearGradient3764"
       x1="128.55009"
       y1="161.4021"
       x2="576.52484"
       y2="161.4021"
       gradientUnits="userSpaceOnUse" />
    <inkscape:perspective
       id="perspective3774"
       inkscape:persp3d-origin="0.5 : 0.33333333 : 1"
       inkscape:vp_z="1 : 0.5 : 1"
       inkscape:vp_y="0 : 1000 : 0"
       inkscape:vp_x="0 : 0.5 : 1"
       sodipodi:type="inkscape:persp3d" />
    <linearGradient
       inkscape:collect="always"
       xlink:href="#linearGradient3788"
       id="linearGradient3794"
       x1="119.46448"
       y1="843.40765"
       x2="567.43927"
       y2="843.40765"
       gradientUnits="userSpaceOnUse" />
    <linearGradient
       inkscape:collect="always"
       xlink:href="#linearGradient3796"
       id="linearGradient3802"
       x1="119.46448"
       y1="843.40765"
       x2="567.43927"
       y2="843.40765"
       gradientUnits="userSpaceOnUse"
       gradientTransform="matrix(-1,0,0,1,686.90373,0)" />
    <linearGradient
       inkscape:collect="always"
       xlink:href="#linearGradient3758"
       id="linearGradient3815"
       gradientUnits="userSpaceOnUse"
       x1="128.55009"
       y1="161.4021"
       x2="576.52484"
       y2="161.4021" />
    <linearGradient
       inkscape:collect="always"
       xlink:href="#linearGradient3796"
       id="linearGradient3817"
       gradientUnits="userSpaceOnUse"
       gradientTransform="matrix(-1,0,0,1,686.90373,0)"
       x1="119.46448"
       y1="843.40765"
       x2="567.43927"
       y2="843.40765" />
    <linearGradient
       inkscape:collect="always"
       xlink:href="#linearGradient3750"
       id="linearGradient3819"
       gradientUnits="userSpaceOnUse"
       gradientTransform="matrix(-1,0,0,1,738.25177,-5.2458)"
       x1="161.7269"
       y1="166.6479"
       x2="609.70166"
       y2="166.6479" />
    <linearGradient
       inkscape:collect="always"
       xlink:href="#linearGradient3788"
       id="linearGradient3821"
       gradientUnits="userSpaceOnUse"
       x1="119.46448"
       y1="843.40765"
       x2="567.43927"
       y2="843.40765" />
  </defs>
  <sodipodi:namedview
     id="base"
     pagecolor="#ffffff"
     bordercolor="#666666"
     borderopacity="1.0"
     inkscape:pageopacity="0.0"
     inkscape:pageshadow="2"
     inkscape:zoom="1.4"
     inkscape:cx="112.95419"
     inkscape:cy="620.7494"
     inkscape:document-units="px"
     inkscape:current-layer="layer1"
     showgrid="false"
     inkscape:window-width="1600"
     inkscape:window-height="838"
     inkscape:window-x="-8"
     inkscape:window-y="-8"
     inkscape:window-maximized="1" />
  <metadata
     id="metadata7">
    <rdf:RDF>
      <cc:Work
         rdf:about="">
        <dc:format>image/svg+xml</dc:format>
        <dc:type
           rdf:resource="http://purl.org/dc/dcmitype/StillImage" />
        <dc:title></dc:title>
      </cc:Work>
    </rdf:RDF>
  </metadata>
  <g
     inkscape:label="Camada 1"
     inkscape:groupmode="layer"
     id="layer1"
     transform="translate(-75.572415,-128.90471)">
    <g
       id="g3804"
       transform="translate(2,-2)">
      <path
         id="rect2816"
         d="m 94.28125,146.65625 0,711.40625 505.71875,0 0,-711.40625 -505.71875,0 z m 21.28125,29.90625 463.1875,0 0,651.59375 -463.1875,0 0,-651.59375 z"
         style="fill:#a0cdd8;fill-opacity:1;stroke:#4494a7;stroke-width:4;stroke-miterlimit:4;stroke-opacity:1;stroke-dasharray:4, 4;stroke-dashoffset:0" />
      <path
         transform="matrix(1.447193,0.31607314,-0.31607314,1.447193,-6.1128097,-95.786191)"
         d="m 138.57143,169.50505 c -2.08207,4.03401 -12.1532,-1.66994 -16.20876,0.36984 -4.05557,2.03977 -5.48082,13.52591 -9.96079,12.79232 -4.47998,-0.73359 -2.16735,-12.07442 -5.36053,-15.30117 -3.19318,-3.22674 -14.557568,-1.03283 -15.24427,-5.52023 -0.686702,-4.48739 10.81371,-5.79246 12.89578,-9.82648 2.08207,-4.03401 -3.51625,-14.16423 0.53931,-16.20401 4.05557,-2.03977 8.85058,8.49448 13.33055,9.22807 4.47997,0.73359 12.38441,-7.72115 15.57759,-4.4944 3.19318,3.22675 -5.34375,11.04234 -4.65704,15.52974 0.6867,4.4874 11.17023,9.39231 9.08816,13.42632 z"
         inkscape:randomized="0"
         inkscape:rounded="0.28"
         inkscape:flatsided="false"
         sodipodi:arg2="1.104786"
         sodipodi:arg1="0.47646742"
         sodipodi:r2="13.206664"
         sodipodi:r1="24.918234"
         sodipodi:cy="158.07648"
         sodipodi:cx="116.42857"
         sodipodi:sides="5"
         id="path3622"
         style="fill:#4494a7;fill-opacity:1;stroke:none"
         sodipodi:type="star" />
      <path
         transform="matrix(0.70281751,1.3039622,-1.3039622,0.70281751,710.58583,-95.470362)"
         d="m 138.57143,169.50505 c -2.08207,4.03401 -12.1532,-1.66994 -16.20876,0.36984 -4.05557,2.03977 -5.48082,13.52591 -9.96079,12.79232 -4.47998,-0.73359 -2.16735,-12.07442 -5.36053,-15.30117 -3.19318,-3.22674 -14.557568,-1.03283 -15.24427,-5.52023 -0.686702,-4.48739 10.81371,-5.79246 12.89578,-9.82648 2.08207,-4.03401 -3.51625,-14.16423 0.53931,-16.20401 4.05557,-2.03977 8.85058,8.49448 13.33055,9.22807 4.47997,0.73359 12.38441,-7.72115 15.57759,-4.4944 3.19318,3.22675 -5.34375,11.04234 -4.65704,15.52974 0.6867,4.4874 11.17023,9.39231 9.08816,13.42632 z"
         inkscape:randomized="0"
         inkscape:rounded="0.28"
         inkscape:flatsided="false"
         sodipodi:arg2="1.104786"
         sodipodi:arg1="0.47646742"
         sodipodi:r2="13.206664"
         sodipodi:r1="24.918234"
         sodipodi:cy="158.07648"
         sodipodi:cx="116.42857"
         sodipodi:sides="5"
         id="path3622-7"
         style="fill:#4494a7;fill-opacity:1;stroke:none"
         sodipodi:type="star" />
      <path
         transform="matrix(1.3465643,-0.61727981,0.61727981,1.3465643,-147.21219,700.2428)"
         d="m 138.57143,169.50505 c -2.08207,4.03401 -12.1532,-1.66994 -16.20876,0.36984 -4.05557,2.03977 -5.48082,13.52591 -9.96079,12.79232 -4.47998,-0.73359 -2.16735,-12.07442 -5.36053,-15.30117 -3.19318,-3.22674 -14.557568,-1.03283 -15.24427,-5.52023 -0.686702,-4.48739 10.81371,-5.79246 12.89578,-9.82648 2.08207,-4.03401 -3.51625,-14.16423 0.53931,-16.20401 4.05557,-2.03977 8.85058,8.49448 13.33055,9.22807 4.47997,0.73359 12.38441,-7.72115 15.57759,-4.4944 3.19318,3.22675 -5.34375,11.04234 -4.65704,15.52974 0.6867,4.4874 11.17023,9.39231 9.08816,13.42632 z"
         inkscape:randomized="0"
         inkscape:rounded="0.28"
         inkscape:flatsided="false"
         sodipodi:arg2="1.104786"
         sodipodi:arg1="0.47646742"
         sodipodi:r2="13.206664"
         sodipodi:r1="24.918234"
         sodipodi:cy="158.07648"
         sodipodi:cx="116.42857"
         sodipodi:sides="5"
         id="path3622-0"
         style="fill:#4494a7;fill-opacity:1;stroke:none"
         sodipodi:type="star" />
      <path
         transform="matrix(1.4807693,-0.03990004,0.03990004,1.4807693,409.14974,610.45459)"
         d="m 138.57143,169.50505 c -2.08207,4.03401 -12.1532,-1.66994 -16.20876,0.36984 -4.05557,2.03977 -5.48082,13.52591 -9.96079,12.79232 -4.47998,-0.73359 -2.16735,-12.07442 -5.36053,-15.30117 -3.19318,-3.22674 -14.557568,-1.03283 -15.24427,-5.52023 -0.686702,-4.48739 10.81371,-5.79246 12.89578,-9.82648 2.08207,-4.03401 -3.51625,-14.16423 0.53931,-16.20401 4.05557,-2.03977 8.85058,8.49448 13.33055,9.22807 4.47997,0.73359 12.38441,-7.72115 15.57759,-4.4944 3.19318,3.22675 -5.34375,11.04234 -4.65704,15.52974 0.6867,4.4874 11.17023,9.39231 9.08816,13.42632 z"
         inkscape:randomized="0"
         inkscape:rounded="0.28"
         inkscape:flatsided="false"
         sodipodi:arg2="1.104786"
         sodipodi:arg1="0.47646742"
         sodipodi:r2="13.206664"
         sodipodi:r1="24.918234"
         sodipodi:cy="158.07648"
         sodipodi:cx="116.42857"
         sodipodi:sides="5"
         id="path3622-4"
         style="fill:#4494a7;fill-opacity:1;stroke:none"
         sodipodi:type="star" />
      <path
         sodipodi:nodetypes="csssssscsssssssc"
         id="path3687"
         d="m 128.5501,167.26739 c 14.91285,-11.52141 35.45821,-20.64923 54.54682,-11.81841 19.21931,8.89128 42.45352,7.02131 63.13553,-0.74722 25.37878,-9.53272 50.08336,17.92025 77.53072,10.89059 23.14954,-5.92892 46.62951,-21.1986 71.32129,-11.93243 21.99664,8.25475 46.15945,22.31604 70.03944,12.40033 16.97985,-7.05056 36.64639,-18.51306 55.12412,-8.15283 16.93529,9.4954 41.25428,-0.50551 56.27685,3.24393 -7.1645,6.95495 -20.22637,1.61948 -30.87866,4.90437 -19.22963,5.92992 -42.07451,-17.45979 -62.60736,-6.2599 -19.59271,10.68708 -43.50319,17.27002 -64.98617,7.45364 -20.005,-9.14103 -43.73666,-19.56814 -65.79872,-8.49453 -25.98147,13.04087 -58.39599,13.30212 -85.4439,-0.15201 -20.03103,-9.9638 -41.19751,9.02062 -62.922,6.21426 -18.45903,-2.38453 -36.35382,-17.37085 -55.2845,-7.8104 -6.70963,3.38852 -13.39622,6.79095 -20.05346,10.26061 z"
         style="fill:url(#linearGradient3815);fill-opacity:1;stroke:none" />
      <path
         sodipodi:nodetypes="csssssscsssssssc"
         id="path3687-8"
         d="m 567.43925,849.27293 c -14.91285,-11.52141 -35.45821,-20.64923 -54.54682,-11.81841 -19.21931,8.89128 -42.45352,7.02131 -63.13553,-0.74722 -25.37878,-9.53272 -50.08336,17.92025 -77.53072,10.89059 -23.14954,-5.92892 -46.62951,-21.1986 -71.32129,-11.93243 -21.99664,8.25475 -46.15945,22.31604 -70.03944,12.40033 -16.97985,-7.05056 -36.64639,-18.51306 -55.12412,-8.15283 -16.93529,9.4954 -41.25428,-0.50551 -56.27685,3.24393 7.1645,6.95495 20.22637,1.61948 30.87866,4.90437 19.22963,5.92992 42.07451,-17.45979 62.60736,-6.2599 19.59271,10.68708 43.50319,17.27002 64.98617,7.45364 20.005,-9.14103 43.73666,-19.56814 65.79872,-8.49453 25.98147,13.04087 58.39599,13.30212 85.4439,-0.15201 20.03103,-9.9638 41.19751,9.02062 62.922,6.21426 18.45903,-2.38453 36.35382,-17.37085 55.2845,-7.8104 6.70963,3.38852 13.39622,6.79095 20.05346,10.26061 z"
         style="fill:url(#linearGradient3817);fill-opacity:1;stroke:none" />
      <path
         sodipodi:nodetypes="csssssscsssssssc"
         id="path3687-82"
         d="m 576.52487,167.26739 c -14.91285,-11.52141 -35.45821,-20.64923 -54.54682,-11.81841 -19.21931,8.89128 -42.45352,7.02131 -63.13553,-0.74722 -25.37878,-9.53272 -50.08336,17.92025 -77.53072,10.89059 -23.14954,-5.92892 -46.62951,-21.1986 -71.32129,-11.93243 -21.99664,8.25475 -46.15945,22.31604 -70.03944,12.40033 -16.97985,-7.05056 -36.64639,-18.51306 -55.12412,-8.15283 -16.93529,9.4954 -41.25428,-0.50551 -56.27685,3.24393 7.1645,6.95495 20.22637,1.61948 30.87866,4.90437 19.22963,5.92992 42.07451,-17.45979 62.60736,-6.2599 19.59271,10.68708 43.50319,17.27002 64.98617,7.45364 20.005,-9.14103 43.73666,-19.56814 65.79872,-8.49453 25.98147,13.04087 58.39599,13.30212 85.4439,-0.15201 20.03103,-9.9638 41.19751,9.02062 62.922,6.21426 18.45903,-2.38453 36.35382,-17.37085 55.2845,-7.8104 6.70963,3.38852 13.39622,6.79095 20.05346,10.26061 z"
         style="fill:url(#linearGradient3819);fill-opacity:1;stroke:none" />
      <path
         sodipodi:nodetypes="csssssscsssssssc"
         id="path3687-8-7"
         d="m 119.46448,849.27293 c 14.91285,-11.52141 35.45821,-20.64923 54.54682,-11.81841 19.21931,8.89128 42.45352,7.02131 63.13553,-0.74722 25.37878,-9.53272 50.08336,17.92025 77.53072,10.89059 23.14954,-5.92892 46.62951,-21.1986 71.32129,-11.93243 21.99664,8.25475 46.15945,22.31604 70.03944,12.40033 16.97985,-7.05056 36.64639,-18.51306 55.12412,-8.15283 16.93529,9.4954 41.25428,-0.50551 56.27685,3.24393 -7.1645,6.95495 -20.22637,1.61948 -30.87866,4.90437 -19.22963,5.92992 -42.07451,-17.45979 -62.60736,-6.2599 -19.59271,10.68708 -43.50319,17.27002 -64.98617,7.45364 -20.005,-9.14103 -43.73666,-19.56814 -65.79872,-8.49453 -25.98147,13.04087 -58.39599,13.30212 -85.4439,-0.15201 -20.03103,-9.9638 -41.19751,9.02062 -62.922,6.21426 -18.45903,-2.38453 -36.35382,-17.37085 -55.2845,-7.8104 -6.70963,3.38852 -13.39622,6.79095 -20.05346,10.26061 z"
         style="fill:url(#linearGradient3821);fill-opacity:1;stroke:none" />
    </g>
  </g>
</svg>
